<svg xmlns="http://www.w3.org/2000/svg" viewBox="0 0 1024 805" width="1024" height="805"><path d="M 834.3 63.2 L 856.7 69.4 L 871.0 89.8 L 942.4 507.9 L 934.2 534.4 L 909.8 548.7 L 495.7 634.4 L 499.8 614.0 L 507.9 609.9 L 875.1 493.6 L 901.6 473.2 L 905.7 444.7 L 801.7 71.4 L 832.3 65.3 Z" fill="#6f3320" stroke="#f4eddc" stroke-width="15" stroke-linejoin="round" fill-rule="evenodd"></path><path d="M 891.4 134.6 L 932.2 136.7 L 950.6 150.9 L 956.7 163.2 L 975.0 507.9 L 983.2 577.3 L 981.2 597.7 L 975.0 607.9 L 958.7 620.1 L 932.2 624.2 L 479.4 658.9 L 489.6 646.6 L 512.0 640.5 L 913.8 558.9 L 942.4 540.6 L 950.6 526.3 L 950.6 495.7 L 889.4 136.7 Z" fill="#6f3320" stroke="#f4eddc" stroke-width="15" stroke-linejoin="round" fill-rule="evenodd"></path><path d="M 740.5 12.2 L 764.9 14.3 L 783.3 36.7 L 862.9 338.6 L 850.6 346.8 L 750.7 369.2 L 730.3 381.5 L 726.2 389.6 L 726.2 424.3 L 734.3 522.2 L 728.2 528.3 L 499.8 601.8 L 507.9 552.8 L 499.8 524.2 L 487.5 510.0 L 485.5 491.6 L 650.7 438.6 L 669.1 414.1 L 669.1 395.7 L 662.9 383.5 L 644.6 367.2 L 622.2 367.2 L 438.6 422.2 L 412.0 397.8 L 393.7 389.6 L 377.4 389.6 L 361.1 375.3 L 334.5 365.1 L 297.8 365.1 L 279.5 357.0 L 248.9 357.0 L 236.6 363.1 L 212.1 359.0 L 183.6 369.2 L 146.9 238.7 L 142.8 206.0 L 150.9 187.7 L 171.3 175.4 L 548.7 63.2 L 738.4 14.3 Z M 612.0 195.8 L 577.3 195.8 L 289.7 283.5 L 273.3 306.0 L 273.3 326.4 L 277.4 336.6 L 301.9 354.9 L 316.2 354.9 L 616.0 265.2 L 632.4 244.8 L 632.4 218.3 L 614.0 195.8 Z" fill="#6f3320" stroke="#f4eddc" stroke-width="15" stroke-linejoin="round" fill-rule="evenodd"></path><path d="M 250.9 369.2 L 275.4 369.2 L 291.7 377.4 L 326.4 377.4 L 354.9 387.6 L 371.3 401.8 L 393.7 403.9 L 416.1 418.2 L 432.4 438.6 L 434.5 448.8 L 461.0 469.2 L 473.2 493.6 L 475.3 514.0 L 489.6 534.4 L 493.6 550.8 L 487.5 620.1 L 473.2 648.7 L 440.6 665.0 L 393.7 656.8 L 352.9 658.9 L 328.4 673.1 L 299.9 673.1 L 289.7 683.3 L 291.7 701.7 L 283.5 705.8 L 250.9 705.8 L 220.3 716.0 L 193.8 716.0 L 134.6 689.5 L 124.4 669.1 L 122.4 648.7 L 73.4 650.7 L 30.6 630.3 L 16.3 603.8 L 12.2 554.8 L 26.5 526.3 L 30.6 499.8 L 49.0 471.2 L 75.5 456.9 L 81.6 436.5 L 95.9 420.2 L 116.3 414.1 L 134.6 395.7 L 150.9 387.6 L 183.6 385.5 L 210.1 371.3 L 248.9 371.3 Z" fill="#6f3320" stroke="#f4eddc" stroke-width="15" stroke-linejoin="round" fill-rule="evenodd"></path><path d="M 589.6 196.0 L 612.4 197.6 L 622.2 205.8 L 630.4 222.1 L 632.0 233.5 L 625.5 253.1 L 615.7 262.9 L 604.3 267.8 L 316.8 352.8 L 297.2 351.1 L 280.9 338.1 L 276.0 325.0 L 276.0 308.7 L 284.2 292.3 L 292.3 285.8 L 305.4 280.9 L 587.9 197.6 Z M 860.7 351.1 L 743.1 516.1 L 733.3 414.8 L 733.3 395.2 L 738.2 385.4 L 749.6 378.9 L 859.0 352.8 Z" fill="#c67c58" fill-rule="evenodd"></path><path d="M 434.4 619.0 L 431.2 625.5 L 419.7 632.0 L 406.7 632.0 L 400.1 638.6 L 377.3 646.7 L 359.3 645.1 L 336.4 635.3 L 320.1 635.3 L 311.9 638.6 L 292.3 658.2 L 279.3 664.7 L 253.1 669.6 L 238.4 682.7 L 228.6 687.6 L 210.7 687.6 L 200.9 682.7 L 199.2 677.8 L 205.8 681.0 L 225.4 679.4 L 249.9 661.4 L 280.9 654.9 L 305.4 632.0 L 321.7 625.5 L 334.8 625.5 L 362.6 636.9 L 382.2 636.9 L 396.9 630.4 L 405.0 622.2 L 424.6 623.9 L 432.8 620.6 Z" fill="#f4eddc" fill-rule="evenodd"></path></svg>